<!-- Copyright 2024 Jelly Terra. Use of the content is subject to the CC BY-NC-ND 4.0 license. -->

<svg width="330" height="115" viewBox="0 0 330 115" fill="#ff006a" xmlns="http://www.w3.org/2000/svg">
<path d="m 118.69,66.309996 -3.69,3.69 h 6.3 c 23.94,0 24.75,-0.09 32.22,-3.6 l 0.18,-0.81 c -5.04,0.54 -7.2,0.63 -15.12,0.72 0.27,-1.17 0.54,-2.34 0.81,-3.42 0.36,-1.53 0.72,-3.06 1.17,-5.31 1.17,-4.86 1.26,-5.4 2.25,-9.09 5.94,-0.36 10.89,-1.8 16.38,-4.77 6.48,-3.51 10.53,-9.81 10.53,-16.47 0,-6.21 -4.95,-9.09 -15.57,-9.09 -0.99,0 -1.89,0 -3.78,0.09 l 0.54,-2.25 -6.03,3.06 c -7.11,0.72 -11.16,1.89 -15.57,4.59 -7.11,4.32 -10.98,10.44 -10.98,17.55 0,2.61 0.36,4.41 1.53,7.29 l 6.75,-4.05 c -1.08,-3.15 -1.35,-4.59 -1.35,-6.75 0,-4.77 2.07,-9.36 5.31,-11.97 3.06,-2.34 6.21,-3.42 12.15,-4.05 -3.06,13.95 -7.83,33.12 -11.16,44.64 z m 30.96,-45.36 c 1.35,-0.09 2.79,-0.18 3.51,-0.18 5.67,0 8.73,2.79 8.73,8.01 0,9.54 -6.39,16.56 -15.03,16.56 -1.08,0 -1.71,-0.09 -3.15,-0.36 z m 52.29014,37.35 c -6.57,4.5 -8.1,5.4 -9,5.4 -0.63,0 -1.08,-0.72 -1.08,-1.8 0,-2.43 2.07,-11.88 5.4,-24.21 0.99,-1.44 1.17,-1.62 2.61,-3.24 -4.32,-0.99 -7.38,-1.35 -11.34,-1.35 -3.69,0 -5.49,0.36 -7.74,1.8 -3.24,1.89 -7.02,4.68 -8.19,5.94 -3.42,3.78 -7.11,15.93 -7.11,23.22 0,4.32 1.44,7.2 3.69,7.2 1.98,0 4.95,-1.8 16.2,-9.9 -0.99,4.59 -1.35,6.84 -1.35,8.01 0,1.26 0.54,1.89 1.44,1.89 1.17,0 1.89,-0.36 8.28,-4.59 3.06,-2.07 4.77,-3.24 8.1,-5.67 z m -15.84,-0.63 c -3.15,2.34 -4.77,3.51 -4.86,3.6 -2.97,1.89 -5.31,3.06 -6.48,3.06 -1.53,0 -2.34,-1.62 -2.34,-4.5 0,-4.59 1.35,-10.53 3.69,-15.75 2.16,-4.95 4.14,-6.84 7.2,-6.84 1.62,0 4.68,0.45 7.65,1.17 -1.8,6.48 -2.43,8.91 -2.52,9.36 -0.54,2.25 -0.99,4.5 -1.53,6.84 -0.09,0.45 -0.36,1.53 -0.81,3.06 z m 46.35,-7.29 c 0.36,-1.98 0.81,-3.69 1.17,-5.13 0.45,-1.71 0.9,-3.42 1.35,-5.04 l 0.45,-1.98 c 1.62,-0.45 1.71,-0.45 4.59,-5.04 -0.45,0 -1.62,0 -10.44,0.18 -5.49,0.09 -7.11,0.36 -9.72,1.98 -4.32,2.61 -7.38,5.22 -9.27,7.65 -2.7,3.6 -5.94,14.31 -5.94,19.89 0,2.25 0.54,3.87 1.98,5.85 -5.49,4.77 -7.11,6.12 -10.35,8.91 -4.5,3.96 -6.57,6.93 -6.57,9.450004 0,3.33 3.87,5.22 10.8,5.22 8.28,0 14.76,-2.34 20.79,-7.560004 3.87,-3.33 4.77,-5.22 6.66,-14.13 z m -11.79,24.66 c -1.17,5.49 -1.98,7.47 -3.6,9.18 -1.98,2.340004 -5.67,3.420004 -10.98,3.420004 -5.85,0 -9,-1.53 -9,-4.500004 0,-3.69 2.52,-5.94 27.45,-25.11 z m -6.84,-11.79 c -1.62,-1.62 -2.25,-3.06 -2.25,-5.22 0,-2.07 0.45,-4.32 2.07,-9.63 1.62,-5.4 2.88,-7.74 4.95,-9 1.62,-1.08 3.6,-1.26 12.6,-1.26 h 2.88 c -3.78,2.79 -4.23,3.15 -5.04,4.5 -0.72,1.17 -1.71,4.59 -3.69,12.15 -1.53,0.99 -1.8,1.26 -2.97,2.07 -2.16,1.53 -4.23,3.15 -6.21,4.68 z m 43.46997,-48.6 c -2.52,1.98 -4.59,3.6 -6.21,4.68 0.63,1.89 1.44,3.42 3.42,6.3 2.52,-2.25 2.79,-2.52 5.85,-4.86 -0.27,-0.54 -0.45,-0.9 -1.17,-2.07 -0.54,-1.08 -0.63,-1.08 -1.35,-2.88 z m 3.42,45 -1.53,0.81 c -6.21,3.42 -7.29,3.87 -8.37,3.87 -0.99,0 -1.62,-0.99 -1.62,-2.52 0,-1.53 0,-1.53 2.97,-13.41 3.33,-13.68 3.33,-13.68 3.33,-14.4 0,-0.54 -0.45,-0.9 -1.08,-0.9 -1.53,0 -6.84,2.97 -14.22,7.92 l -0.18,2.52 c 5.49,-2.97 5.76,-3.06 6.57,-3.06 0.72,0 1.08,0.54 1.08,1.53 0,1.26 -0.27,2.52 -1.62,7.65 -4.23,15.66 -4.23,15.66 -4.23,18 0,2.16 0.81,3.6 2.16,3.6 1.53,0 3.96,-1.17 8.73,-4.23 1.71,-1.08 3.42,-2.16 5.13,-3.33 0.81,-0.45 1.44,-0.9 2.52,-1.53 z m 8.36998,8.73 5.31,-21.15 2.25,-1.44 c 8.37,-5.22 9.36,-5.76 10.62,-5.76 0.54,0 0.9,0.45 0.9,1.17 0,1.44 -0.63,4.05 -3.33,15.03 -1.98,7.92 -2.34,9.54 -2.34,11.25 0,1.26 0.36,2.34 1.35,4.05 4.05,-1.8 10.35,-5.76 16.65,-10.44 l 0.63,-2.52 c -8.73,5.04 -9.36,5.31 -10.26,5.31 -0.9,0 -1.44,-0.9 -1.44,-2.43 0,-2.43 0.36,-3.96 4.32,-18.27 2.25,-8.01 2.25,-8.01 2.25,-8.55 0,-0.99 -0.63,-1.53 -1.71,-1.53 -1.98,0 -2.25,0.18 -11.97,6.12 -3.6,2.25 -5.94,3.69 -7.02,4.41 0.9,-3.15 2.16,-8.64 2.16,-9.36 0,-0.72 -0.45,-1.17 -1.17,-1.17 -0.99,0 -7.11,3.15 -14.13,7.29 l -0.54,2.34 c 5.76,-2.61 6.12,-2.7 6.93,-2.7 0.63,0 1.08,0.54 1.08,1.26 0,1.98 -1.62,9.18 -3.96,17.55 l -2.07,7.29 c -0.18,0.63 -0.63,2.34 -1.26,4.86 z m 60.83991,-10.62 c -7.2,6.12 -11.07,8.37 -14.49,8.37 -2.34,0 -4.14,-1.53 -4.77,-3.87 -0.36,-1.44 -0.45,-2.43 -0.45,-5.04 4.14,-2.61 6.66,-4.41 11.97,-8.37 4.95,-3.69 6.75,-6.66 6.75,-10.71 0,-3.15 -1.89,-5.04 -5.13,-5.04 -1.98,0 -3.33,0.45 -5.49,1.62 -3.42,1.98 -6.48,4.41 -8.28,6.57 -3.42,4.14 -6.48,14.04 -6.48,21.33 0,5.31 2.79,8.64 7.38,8.64 5.31,0 12.15,-3.96 18.9,-10.89 z m -19.44,-3.78 c 1.53,-9.72 5.58,-17.1 9.54,-17.1 1.44,0 2.43,1.44 2.43,3.69 0,4.5 -2.61,7.38 -11.97,13.41 z"/>
<path d="m 0,0 v 70 h 10 a 35,9.9999924 0 0 1 32,5.955078 V 66.009766 A 45,19.999996 0 0 0 10,60 V 55 50 40 30 20 10 A 35,9.9999924 0 0 1 42.433594,16.269531 37.150073,21.400002 0 0 1 47.21875,8.9375 45,19.999996 0 0 0 10,0 Z m 90,0 a 45,19.999996 0 0 0 -6.40234,0.224609 45,19.999996 0 0 0 -0.97071,0.06055 45,19.999996 0 0 0 -6.0664,0.646485 45,19.999996 0 0 0 -0.9043,0.134765 45,19.999996 0 0 0 -5.97852,1.097656 45,19.999996 0 0 0 -0.0977,0.02344 45,19.999996 0 0 0 -5.64844,1.53125 45,19.999996 0 0 0 -0.41211,0.126953 45,19.999996 0 0 0 -4.9668,1.876953 45,19.999996 0 0 0 -0.50195,0.222656 45,19.999996 0 0 0 -4.30469,2.22461 45,19.999996 0 0 0 -0.11523,0.07422 45,19.999996 0 0 0 -3.61524,2.603515 45,19.999996 0 0 0 -0.006,0.0039 A 45,19.999996 0 0 0 45,20 V 27.429688 40 47.429688 60 67.429688 80 115 l 5,-10 5,10 V 80 67.458984 65 60 20 A 35,9.9999924 0 0 1 90,10 V 60 A 45,19.999996 0 0 0 58,66.033203 V 76.035156 A 35,9.9999924 0 0 1 90,70 h 10 V 0 Z M 13,20.099609 v 9.941407 a 35,9.9999924 0 0 1 29,5.984375 v -9.982422 a 45,19.999996 0 0 0 -29,-5.94336 z m 0,20 v 9.941407 a 35,9.9999924 0 0 1 29,5.984375 v -9.982422 a 45,19.999996 0 0 0 -29,-5.94336 z"/>
</svg>
