<!-- Copyright 2024 Jelly Terra. Use of the content is subject to the CC BY-NC-ND 4.0 license. -->

<svg width="20" height="35" viewBox="0 0 20 35" fill="#ff006a" xmlns="http://www.w3.org/2000/svg">
    <g transform="translate(-40,-64.999997)">
        <path d="M 40 64.999997 L 40 99.999997 L 50 89.999997 L 60 99.999997 L 60 64.999997 L 40 64.999997 z M 44 69.999997 L 48.5 69.999997 A 1.9999992 2.0000033 0 0 1 49.5 70.267575 L 49 71.134763 A 0.99999911 1.0000035 0 0 0 48.5 70.999997 L 44 70.999997 A 1 0.99999994 0 0 0 43.292969 71.292966 A 1 0.99999994 0 0 0 43 71.999997 L 43 80.999997 A 1 0.99999994 0 0 0 43.292969 81.707028 A 1 0.99999994 0 0 0 44 81.999997 L 49 81.999997 L 49 82.999997 L 44 82.999997 A 2 1.9999999 0 0 1 42.585938 82.414059 A 2 1.9999999 0 0 1 42 80.999997 L 42 71.999997 A 2 1.9999999 0 0 1 42.585938 70.585934 A 2 1.9999999 0 0 1 44 69.999997 z M 51.5 69.999997 L 56 69.999997 A 2 1.9999999 0 0 1 57.414062 70.585934 A 2 1.9999999 0 0 1 58 71.999997 L 58 80.999997 A 2 1.9999999 0 0 1 57.414062 82.414059 A 2 1.9999999 0 0 1 56 82.999997 L 51 82.999997 L 51 81.999997 L 56 81.999997 A 1 0.99999994 0 0 0 56.707031 81.707028 A 1 0.99999994 0 0 0 57 80.999997 L 57 71.999997 A 1 0.99999994 0 0 0 56.707031 71.292966 A 1 0.99999994 0 0 0 56 70.999997 L 51.5 70.999997 A 1 0.99999994 0 0 0 50.792969 71.292966 A 1 0.99999994 0 0 0 50.5 71.999997 L 50.5 87.999997 L 50 87.499997 L 49.5 87.999997 L 49.5 71.999997 A 2 1.9999999 0 0 1 50.085938 70.585934 A 2 1.9999999 0 0 1 51.5 69.999997 z " />
    </g>
</svg>
