<!-- Copyright 2024 Jelly Terra. Use of the content is subject to the CC BY-NC-ND 4.0 license. -->

<svg width="100" height="145" viewBox="0 0 100 145" fill="#ff006a" xmlns="http://www.w3.org/2000/svg">
<path d="m 0,30 v 70 h 10 a 35,9.9999924 0 0 1 32,5.95508 V 96.009766 A 45,19.999996 0 0 0 10,90 V 85 80 70 60 50 40 A 35,9.9999924 0 0 1 42.433594,46.269531 37.150073,21.400002 0 0 1 47.21875,38.9375 45,19.999996 0 0 0 10,30 Z m 90,0 a 45,19.999996 0 0 0 -6.40234,0.224609 45,19.999996 0 0 0 -0.97071,0.06055 45,19.999996 0 0 0 -6.0664,0.646485 45,19.999996 0 0 0 -0.9043,0.134765 45,19.999996 0 0 0 -5.97852,1.097656 45,19.999996 0 0 0 -0.0977,0.02344 45,19.999996 0 0 0 -5.64844,1.53125 45,19.999996 0 0 0 -0.41211,0.126953 45,19.999996 0 0 0 -4.9668,1.876953 45,19.999996 0 0 0 -0.50195,0.222656 45,19.999996 0 0 0 -4.30469,2.22461 45,19.999996 0 0 0 -0.11523,0.07422 45,19.999996 0 0 0 -3.61524,2.603515 45,19.999996 0 0 0 -0.006,0.0039 A 45,19.999996 0 0 0 45,50 V 57.429688 70 77.429688 90 97.429688 110 145 l 5,-10 5,10 V 110 97.458984 95 90 50 A 35,9.9999924 0 0 1 90,40 V 90 A 45,19.999996 0 0 0 58,96.033203 V 106.03516 A 35,9.9999924 0 0 1 90,100 h 10 V 30 Z M 13,50.099609 v 9.941407 a 35,9.9999924 0 0 1 29,5.984375 v -9.982422 a 45,19.999996 0 0 0 -29,-5.94336 z m 0,20 v 9.941407 a 35,9.9999924 0 0 1 29,5.984375 v -9.982422 a 45,19.999996 0 0 0 -29,-5.94336 z"/>
</svg>
