<!-- Copyright 2024 Jelly Terra. Use of the content is subject to the CC BY-NC-ND 4.0 license. -->

<svg width="100" height="115" viewBox="0 0 100 115" fill="#ff006a" xmlns="http://www.w3.org/2000/svg">
<path d="m 0,0 v 70 h 10 a 35,9.9999924 0 0 1 32,5.955078 V 66.009766 A 45,19.999996 0 0 0 10,60 V 55 50 40 30 20 10 A 35,9.9999924 0 0 1 42.433594,16.269531 37.150073,21.400002 0 0 1 47.21875,8.9375 45,19.999996 0 0 0 10,0 Z m 90,0 a 45,19.999996 0 0 0 -6.40234,0.224609 45,19.999996 0 0 0 -0.97071,0.06055 45,19.999996 0 0 0 -6.0664,0.646485 45,19.999996 0 0 0 -0.9043,0.134765 45,19.999996 0 0 0 -5.97852,1.097656 45,19.999996 0 0 0 -0.0977,0.02344 45,19.999996 0 0 0 -5.64844,1.53125 45,19.999996 0 0 0 -0.41211,0.126953 45,19.999996 0 0 0 -4.9668,1.876953 45,19.999996 0 0 0 -0.50195,0.222656 45,19.999996 0 0 0 -4.30469,2.22461 45,19.999996 0 0 0 -0.11523,0.07422 45,19.999996 0 0 0 -3.61524,2.603515 45,19.999996 0 0 0 -0.006,0.0039 A 45,19.999996 0 0 0 45,20 V 27.429688 40 47.429688 60 67.429688 80 115 l 5,-10 5,10 V 80 67.458984 65 60 20 A 35,9.9999924 0 0 1 90,10 V 60 A 45,19.999996 0 0 0 58,66.033203 V 76.035156 A 35,9.9999924 0 0 1 90,70 h 10 V 0 Z M 13,20.099609 v 9.941407 a 35,9.9999924 0 0 1 29,5.984375 v -9.982422 a 45,19.999996 0 0 0 -29,-5.94336 z m 0,20 v 9.941407 a 35,9.9999924 0 0 1 29,5.984375 v -9.982422 a 45,19.999996 0 0 0 -29,-5.94336 z"/>
</svg>
