<!-- Copyright 2024 Jelly Terra. Use of the content is subject to the CC BY-NC-ND 4.0 license. -->

<svg width="102.60001" height="34.999996" viewBox="0 0 102.60001 34.999998" fill="#ff006a" xmlns="http://www.w3.org/2000/svg">
    <g transform="translate(-40,-64.999997)">
        <path d="m 67.496,88.655992 -1.312,1.312 h 2.24 c 8.512,0 8.8,-0.032 11.456,-1.28 l 0.064,-0.288 c -1.792,0.192 -2.56,0.224 -5.376,0.256 0.096,-0.416 0.192,-0.832 0.288,-1.216 0.128,-0.544 0.256,-1.088 0.416,-1.888 0.416,-1.728 0.448,-1.92 0.8,-3.232 2.112,-0.128 3.872,-0.64 5.824,-1.696 2.304,-1.248 3.744,-3.488 3.744,-5.856 0,-2.208 -1.76,-3.232 -5.536,-3.232 -0.352,0 -0.672,0 -1.344,0.032 l 0.192,-0.8 -2.144,1.088 c -2.528,0.256 -3.968,0.672 -5.536,1.632 -2.528,1.536 -3.904,3.712 -3.904,6.24 0,0.928 0.128,1.568 0.544,2.592 l 2.4,-1.44 c -0.384,-1.12 -0.48,-1.632 -0.48,-2.4 0,-1.696 0.736,-3.328 1.888,-4.256 1.088,-0.832 2.208,-1.216 4.32,-1.44 -1.088,4.96 -2.784,11.776 -3.968,15.872 z m 11.008,-16.128 c 0.48,-0.032 0.992,-0.064 1.248,-0.064 2.016,0 3.104,0.992 3.104,2.848 0,3.392 -2.272,5.888 -5.344,5.888 -0.384,0 -0.608,-0.032 -1.12,-0.128 z m 18.592051,13.28 c -2.336,1.6 -2.88,1.92 -3.2,1.92 -0.224,0 -0.384,-0.256 -0.384,-0.64 0,-0.864 0.736,-4.224 1.92,-8.608 0.352,-0.512 0.416,-0.576 0.928,-1.152 -1.536,-0.352 -2.624,-0.48 -4.032,-0.48 -1.312,0 -1.952,0.128 -2.752,0.64 -1.152,0.672 -2.496,1.664 -2.912,2.112 -1.216,1.344 -2.528,5.664 -2.528,8.256 0,1.536 0.512,2.56 1.312,2.56 0.704,0 1.76,-0.64 5.76,-3.52 -0.352,1.632 -0.48,2.432 -0.48,2.848 0,0.448 0.192,0.672 0.512,0.672 0.416,0 0.672,-0.128 2.944,-1.632 1.088,-0.736 1.696,-1.152 2.88,-2.016 z m -5.632,-0.224 c -1.12,0.832 -1.696,1.248 -1.728,1.28 -1.056,0.672 -1.888,1.088 -2.304,1.088 -0.544,0 -0.832,-0.576 -0.832,-1.6 0,-1.632 0.48,-3.744 1.312,-5.6 0.768,-1.76 1.472,-2.432 2.56,-2.432 0.576,0 1.664,0.16 2.72,0.416 -0.64,2.304 -0.864,3.168 -0.896,3.328 -0.192,0.8 -0.352,1.6 -0.544,2.432 -0.032,0.16 -0.128,0.544 -0.288,1.088 z m 16.479999,-2.592 c 0.128,-0.704 0.288,-1.312 0.416,-1.824 0.16,-0.608 0.32,-1.216 0.48,-1.792 l 0.16,-0.704 c 0.576,-0.16 0.608,-0.16 1.632,-1.792 -0.16,0 -0.576,0 -3.712,0.064 -1.952,0.032 -2.528,0.128 -3.456,0.704 -1.536,0.928 -2.624,1.856 -3.296,2.72 -0.959999,1.28 -2.111999,5.088 -2.111999,7.072 0,0.8 0.192,1.376 0.704,2.08 -1.952,1.696 -2.528,2.176 -3.68,3.168 -1.6,1.408 -2.336,2.464 -2.336,3.36 0,1.184 1.376,1.856 3.84,1.856 2.944,0 5.247999,-0.832 7.391999,-2.688 1.376,-1.184 1.696,-1.856 2.368,-5.024 z m -4.192,8.768 c -0.416,1.952 -0.704,2.656 -1.28,3.264 -0.704,0.832 -2.016,1.216 -3.903999,1.216 -2.08,0 -3.2,-0.544 -3.2,-1.6 0,-1.312 0.896,-2.112 9.759999,-8.928 z m -2.432,-4.192 c -0.576,-0.576 -0.8,-1.088 -0.8,-1.856 0,-0.736 0.16,-1.536 0.736,-3.424 0.576,-1.92 1.024,-2.752 1.76,-3.2 0.576,-0.384 1.28,-0.448 4.48,-0.448 h 1.024 c -1.344,0.992 -1.504,1.12 -1.792,1.6 -0.256,0.416 -0.608,1.632 -1.312,4.32 -0.544,0.352 -0.64,0.448 -1.056,0.736 -0.768,0.544 -1.504,1.12 -2.208,1.664 z m 15.45599,-17.28 c -0.896,0.704 -1.632,1.28 -2.208,1.664 0.224,0.672 0.512,1.216 1.216,2.24 0.896,-0.8 0.992,-0.896 2.08,-1.728 -0.096,-0.192 -0.16,-0.32 -0.416,-0.736 -0.192,-0.384 -0.224,-0.384 -0.48,-1.024 z m 1.216,16 -0.544,0.288 c -2.208,1.216 -2.592,1.376 -2.976,1.376 -0.352,0 -0.576,-0.352 -0.576,-0.896 0,-0.544 0,-0.544 1.056,-4.768 1.184,-4.864 1.184,-4.864 1.184,-5.12 0,-0.192 -0.16,-0.32 -0.384,-0.32 -0.544,0 -2.432,1.056 -5.056,2.816 l -0.064,0.896 c 1.952,-1.056 2.048,-1.088 2.336,-1.088 0.256,0 0.384,0.192 0.384,0.544 0,0.448 -0.096,0.896 -0.576,2.72 -1.504,5.568 -1.504,5.568 -1.504,6.4 0,0.768 0.288,1.28 0.768,1.28 0.544,0 1.408,-0.416 3.104,-1.504 0.608,-0.384 1.216,-0.768 1.824,-1.184 0.288,-0.16 0.512,-0.32 0.896,-0.544 z m 2.97599,3.104 1.888,-7.52 0.8,-0.512 c 2.976,-1.856 3.328,-2.048 3.776,-2.048 0.192,0 0.32,0.16 0.32,0.416 0,0.512 -0.224,1.44 -1.184,5.344 -0.704,2.816 -0.832,3.392 -0.832,4 0,0.448 0.128,0.832 0.48,1.44 1.44,-0.64 3.68,-2.048 5.92,-3.712 l 0.224,-0.896 c -3.104,1.792 -3.328,1.888 -3.648,1.888 -0.32,0 -0.512,-0.32 -0.512,-0.864 0,-0.864 0.128,-1.408 1.536,-6.496 0.8,-2.848 0.8,-2.848 0.8,-3.04 0,-0.352 -0.224,-0.544 -0.608,-0.544 -0.704,0 -0.8,0.064 -4.256,2.176 -1.28,0.8 -2.112,1.312 -2.496,1.568 0.32,-1.12 0.768,-3.072 0.768,-3.328 0,-0.256 -0.16,-0.416 -0.416,-0.416 -0.352,0 -2.528,1.12 -5.024,2.592 l -0.192,0.832 c 2.048,-0.928 2.176,-0.96 2.464,-0.96 0.224,0 0.384,0.192 0.384,0.448 0,0.704 -0.576,3.264 -1.408,6.24 l -0.736,2.592 c -0.064,0.224 -0.224,0.832 -0.448,1.728 z m 21.63197,-3.776 c -2.56,2.176 -3.936,2.976 -5.152,2.976 -0.832,0 -1.472,-0.544 -1.696,-1.376 -0.128,-0.512 -0.16,-0.864 -0.16,-1.792 1.472,-0.928 2.368,-1.568 4.256,-2.976 1.76,-1.312 2.4,-2.368 2.4,-3.808 0,-1.12 -0.672,-1.792 -1.824,-1.792 -0.704,0 -1.184,0.16 -1.952,0.576 -1.216,0.704 -2.304,1.568 -2.944,2.336 -1.216,1.472 -2.304,4.992 -2.304,7.584 0,1.888 0.992,3.072 2.624,3.072 1.888,0 4.32,-1.408 6.72,-3.872 z m -6.912,-1.344 c 0.544,-3.456 1.984,-6.08 3.392,-6.08 0.512,0 0.864,0.512 0.864,1.312 0,1.6 -0.928,2.624 -4.256,4.768 z" />
        <path d="M 40 64.999997 L 40 99.999997 L 50 89.999997 L 60 99.999997 L 60 64.999997 L 40 64.999997 z M 44 69.999997 L 48.5 69.999997 A 1.9999992 2.0000033 0 0 1 49.5 70.267575 L 49 71.134763 A 0.99999911 1.0000035 0 0 0 48.5 70.999997 L 44 70.999997 A 1 0.99999994 0 0 0 43.292969 71.292966 A 1 0.99999994 0 0 0 43 71.999997 L 43 80.999997 A 1 0.99999994 0 0 0 43.292969 81.707028 A 1 0.99999994 0 0 0 44 81.999997 L 49 81.999997 L 49 82.999997 L 44 82.999997 A 2 1.9999999 0 0 1 42.585938 82.414059 A 2 1.9999999 0 0 1 42 80.999997 L 42 71.999997 A 2 1.9999999 0 0 1 42.585938 70.585934 A 2 1.9999999 0 0 1 44 69.999997 z M 51.5 69.999997 L 56 69.999997 A 2 1.9999999 0 0 1 57.414062 70.585934 A 2 1.9999999 0 0 1 58 71.999997 L 58 80.999997 A 2 1.9999999 0 0 1 57.414062 82.414059 A 2 1.9999999 0 0 1 56 82.999997 L 51 82.999997 L 51 81.999997 L 56 81.999997 A 1 0.99999994 0 0 0 56.707031 81.707028 A 1 0.99999994 0 0 0 57 80.999997 L 57 71.999997 A 1 0.99999994 0 0 0 56.707031 71.292966 A 1 0.99999994 0 0 0 56 70.999997 L 51.5 70.999997 A 1 0.99999994 0 0 0 50.792969 71.292966 A 1 0.99999994 0 0 0 50.5 71.999997 L 50.5 87.999997 L 50 87.499997 L 49.5 87.999997 L 49.5 71.999997 A 2 1.9999999 0 0 1 50.085938 70.585934 A 2 1.9999999 0 0 1 51.5 69.999997 z " />
    </g>
</svg>
