<!-- Copyright 2024 Jelly Terra. All rights reserved. -->

<svg width="37" height="7" viewBox="0 0 37 7" xmlns="http://www.w3.org/2000/svg">
  <g transform="translate(-5,-14)">
    <path d="M 33 14 L 33 15 L 34 15 L 34 14 L 33 14 z M 5 16 L 5 17 L 5 18 L 5 19 L 7 19 L 7 20 L 5 20 L 5 21 L 7 21 L 8 21 L 8 20 L 8 19 L 8 18 L 7 18 L 6 18 L 6 17 L 8 17 L 8 16 L 5 16 z M 9 16 L 9 18 L 9 19 L 11 19 L 11 20 L 9.0058594 20 L 9.0058594 21 L 11 21 L 12 21 L 12.005859 21 L 12.005859 20 L 12 20 L 12 19 L 12 18 L 12 16 L 11 16 L 11 18 L 10 18 L 10 16 L 9 16 z M 13 16 L 13 21 L 14 21 L 14 16 L 13 16 z M 14.994141 16 L 14.994141 19 L 15.994141 19 L 15.994141 16 L 14.994141 16 z M 17 16 L 17 21 L 18 21 L 18 16 L 17 16 z M 19 16 L 19 17 L 20 17 L 20 16 L 19 16 z M 23 16 L 23 17 L 23 20 L 23 21 L 26 21 L 26 20 L 26 17 L 26 16 L 25 16 L 24 16 L 23 16 z M 27 16 L 27 20 L 27 21 L 28 21 L 28.996094 21 L 28.996094 20 L 28 20 L 28 16 L 27 16 z M 29 16 L 29 17 L 30 17 L 30 21 L 31 21 L 31 17 L 32 17 L 32 16 L 31 16 L 30 16 L 29 16 z M 33 16 L 33 21 L 34 21 L 34 16 L 33 16 z M 35 16 L 35 17 L 35 20 L 35 21 L 36 21 L 38 21 L 38 20 L 36 20 L 36 17 L 38 17 L 38 16 L 36 16 L 35 16 z M 39 16 L 39 17 L 39 18 L 39 19 L 41 19 L 41 20 L 39 20 L 39 21 L 41 21 L 42 21 L 42 20 L 42 19 L 42 18 L 41 18 L 40 18 L 40 17 L 42 17 L 42 16 L 39 16 z M 24 17 L 25 17 L 25 20 L 24 20 L 24 17 z M 19 18 L 19 19 L 21 19 L 21 18 L 19 18 z M 19 19.996094 L 19 20.996094 L 22 20.996094 L 22 19.996094 L 19 19.996094 z " />
  </g>
</svg>
