<!-- Copyright 2024 Jelly Terra. All rights reserved. -->

<svg width="918.94397" height="72.160004" viewBox="0 0 918.94394 72.160004" xmlns="http://www.w3.org/2000/svg">
   <g transform="translate(-60.717625,-82.532589)">
      <path d="m 69.485625,91.652589 q 0.736,-1.664 1.856,-3.68 1.12,-2.048 2.24,-3.808 h 3.52 q -0.8,1.888 -1.632,4.032 -0.8,2.144 -1.408,3.808 h -4.448 z m -6.976,0 q 0.736,-1.664 1.856,-3.68 1.12,-2.048 2.24,-3.808 h 3.52 q -0.8,1.888 -1.632,4.032 -0.8,2.144 -1.408,3.808 h -4.448 z m 21.216025,15.360001 4.832,-22.848001 h 4.768 l -1.888,8.96 h 7.36 l 1.888,-8.96 h 4.768 l -4.832,22.848001 h -4.768 l 2.08,-9.856001 h -7.36 l -2.08,9.856001 z m 27.74402,0.32 q -2.24,0 -3.36,-1.344 -1.088,-1.376 -1.088,-3.68 0,-0.576 0.096,-1.472 0.096,-0.928001 0.288,-1.856001 l 1.984,-9.44 h 4.704 l -2.144,10.208 q -0.256,1.120001 -0.256,1.856001 0,1.92 1.696,1.92 1.088,0 1.92,-0.896 0.864,-0.928 1.504,-2.464 0.64,-1.536001 1.024,-3.392001 l 1.536,-7.232 h 4.704 l -3.712,17.472001 h -3.584 l 0.32,-3.232 h -0.16 q -0.992,1.568 -2.336,2.56 -1.312,0.992 -3.136,0.992 z m 13.72801,-0.32 3.712,-17.472001 h 3.584 l -0.32,3.232 h 0.128 q 1.024,-1.568 2.336,-2.56 1.344,-0.992 3.168,-0.992 2.272,0 3.392,1.376 1.12,1.344 1.12,3.648 0,1.152 -0.352,2.816 l -2.08,9.952001 h -4.704 l 2.144,-10.208001 q 0.256,-1.12 0.256,-1.856 0,-1.92 -1.696,-1.92 -1.056,0 -1.92,0.928 -0.864,0.896 -1.504,2.432 -0.608,1.536 -1.024,3.392 l -1.536,7.232001 z m 25.088,0.32 q -1.248,0 -2.4,-0.608 -1.12,-0.64 -1.824,-2.016 -0.704,-1.408 -0.704,-3.744 0,-2.112001 0.576,-4.192001 0.576,-2.112 1.632,-3.808 1.056,-1.696 2.528,-2.72 1.504,-1.024 3.36,-1.024 1.568,0 2.464,0.736 0.896,0.736 1.504,1.824 h 0.128 q 0,-0.096 0.032,-0.672 0.064,-0.608 0.16,-1.376 0.096,-0.8 0.224,-1.44 l 1.184,-5.6 h 4.704 l -5.152,24.320001 h -3.584 l 0.288,-2.272 h -0.128 q -0.928,1.152 -2.112,1.888 -1.184,0.704 -2.88,0.704 z m 1.984,-3.808 q 1.12,0 1.888,-0.832 0.8,-0.864 1.28,-2.112 0.512,-1.280001 0.736,-2.560001 0.256,-1.312 0.256,-2.24 0,-1.248 -0.576,-1.984 -0.576,-0.768 -1.6,-0.768 -0.864,0 -1.632,0.704 -0.736,0.672 -1.312,1.792 -0.544,1.12 -0.864,2.496 -0.32,1.376 -0.32,2.752001 0,2.752 2.144,2.752 z m 11.264,3.488 3.712,-17.472001 h 3.584 l -0.32,3.232 h 0.16 q 1.056,-1.664 2.4,-2.592 1.344,-0.96 3.04,-0.96 0.384,0 0.8,0.064 0.448,0.032 0.704,0.096 l -1.024,4.544 q -0.256,-0.096 -0.672,-0.16 -0.416,-0.096 -0.896,-0.096 -1.76,0 -3.168,1.408 -1.376,1.376 -1.952,4.128 l -1.664,7.808001 z m 20.57597,0.32 q -3.072,0 -4.992,-1.664 -1.92,-1.696 -1.92,-5.088 0,-2.208001 0.608,-4.224001 0.64,-2.048 1.856,-3.648 1.248,-1.6 3.072,-2.528 1.824,-0.96 4.224,-0.96 2.944,0 4.384,1.344 1.472,1.344 1.472,3.424 0,2.752 -2.496,4.416 -2.464,1.664001 -7.552,1.664001 h -0.8 q -0.032,0.192 -0.032,0.352 0,0.128 0,0.288 0,1.408 0.8,2.24 0.832,0.832 2.304,0.832 1.376,0 2.496,-0.32 1.12,-0.32 2.656,-1.024 v 3.552 q -1.376,0.672 -2.784,1.024 -1.408,0.32 -3.296,0.32 z m -0.928,-10.432001 q 2.72,0 3.904,-0.832 1.216,-0.864 1.216,-1.984 0,-1.472 -1.632,-1.472 -0.864,0 -1.728,0.544 -0.864,0.544 -1.536,1.504 -0.64,0.96 -0.928,2.24 z m 16.76797,10.432001 q -1.248,0 -2.4,-0.608 -1.12,-0.64 -1.824,-2.016 -0.704,-1.408 -0.704,-3.744 0,-2.112001 0.576,-4.192001 0.576,-2.112 1.632,-3.808 1.056,-1.696 2.528,-2.72 1.504,-1.024 3.36,-1.024 1.568,0 2.464,0.736 0.896,0.736 1.504,1.824 h 0.128 q 0,-0.096 0.032,-0.672 0.064,-0.608 0.16,-1.376 0.096,-0.8 0.224,-1.44 l 1.184,-5.6 h 4.704 l -5.152,24.320001 h -3.584 l 0.288,-2.272 h -0.128 q -0.928,1.152 -2.112,1.888 -1.184,0.704 -2.88,0.704 z m 1.984,-3.808 q 1.12,0 1.888,-0.832 0.8,-0.864 1.28,-2.112 0.512,-1.280001 0.736,-2.560001 0.256,-1.312 0.256,-2.24 0,-1.248 -0.576,-1.984 -0.576,-0.768 -1.6,-0.768 -0.864,0 -1.632,0.704 -0.736,0.672 -1.312,1.792 -0.544,1.12 -0.864,2.496 -0.32,1.376 -0.32,2.752001 0,2.752 2.144,2.752 z m 16.288,3.808 q -1.664,0 -2.912,-0.256 -1.248,-0.224 -2.336,-0.768 v -3.872 q 1.184,0.672 2.432,1.056 1.248,0.352 2.56,0.352 1.12,0 1.984,-0.448 0.864,-0.48 0.864,-1.44 0,-0.64 -0.512,-1.152 -0.512,-0.512 -2.112,-1.408001 -1.632,-0.928 -2.528,-1.92 -0.864,-1.024 -0.864,-2.688 0,-2.72 1.76,-4.128 1.792,-1.44 4.896,-1.44 1.504,0 2.912,0.352 1.408,0.32 2.752,1.12 l -1.536,3.36 q -0.928,-0.544 -1.984,-0.928 -1.024,-0.384 -2.048,-0.384 -0.768,0 -1.376,0.384 -0.608,0.352 -0.608,1.088 0,0.608 0.512,1.088 0.512,0.448 1.856,1.152 1.6,0.8 2.624,1.92 1.024,1.088 1.024,2.880001 0,3.008 -2.016,4.544 -1.984,1.536 -5.344,1.536 z m 25.95199,0 q -1.952,0 -3.488,-0.8 -1.504,-0.832 -2.368,-2.336 -0.832,-1.504 -0.832,-3.584 0,-2.304001 0.576,-4.352001 0.576,-2.08 1.728,-3.648 1.152,-1.6 2.88,-2.496 1.76,-0.896 4.096,-0.896 3.04,0 4.832,1.824 1.792,1.824 1.792,5.088 0,2.208 -0.544,4.224001 -0.544,2.016 -1.696,3.584 -1.12,1.568 -2.88,2.496 -1.728,0.896 -4.096,0.896 z m 0.384,-3.84 q 1.312,0 2.208,-1.056 0.928,-1.056 1.408,-2.720001 0.48,-1.696 0.48,-3.584 0,-1.312 -0.512,-2.176 -0.48,-0.896 -1.728,-0.896 -1.056,0 -1.856,0.736 -0.8,0.704 -1.312,1.856 -0.512,1.152 -0.768,2.464 -0.256,1.312 -0.256,2.496001 0,2.88 2.336,2.88 z m 9.53597,11.2 q -1.632,0 -2.72,-0.384 v -3.776 q 0.96,0.32 1.792,0.32 0.96,0 1.664,-0.64 0.736,-0.64 1.024,-2.016 l 3.2,-15.072001 h -2.56 l 0.48,-2.272 2.848,-1.312 0.288,-1.312 q 0.704,-3.168 2.272,-4.416 1.6,-1.28 4.16,-1.28 1.088,0 1.984,0.224 0.928,0.192 1.696,0.544 l -1.248,3.488 q -0.448,-0.192 -0.96,-0.32 -0.48,-0.16 -1.12,-0.16 -0.896,0 -1.44,0.64 -0.544,0.608 -0.736,1.632 l -0.192,0.96 h 3.424 l -0.768,3.584 h -3.424 l -3.36,15.776001 q -0.32,1.6 -1.056,2.912 -0.736,1.312 -2.016,2.08 -1.248,0.8 -3.232,0.8 z m 19.90398,0 5.344,-25.152001 h 3.584 l -0.256,2.656 h 0.128 q 0.832,-1.12 2.048,-2.048 1.216,-0.928 2.912,-0.928 1.28,0 2.4,0.64 1.12,0.608 1.824,2.016 0.704,1.376 0.704,3.712 0,2.112 -0.576,4.224 -0.576,2.080001 -1.632,3.776001 -1.056,1.696 -2.56,2.72 -1.472,1.024 -3.328,1.024 -1.6,0 -2.464,-0.736 -0.864,-0.736 -1.504,-1.824 h -0.128 q -0.096,1.28 -0.256,2.336 -0.16,1.056 -0.416,2.272 l -1.12,5.312 z m 9.792,-11.168 q 0.864,0 1.6,-0.672 0.768,-0.704 1.312,-1.824 0.576,-1.120001 0.896,-2.496001 0.32,-1.376 0.32,-2.752 0,-2.752 -2.048,-2.752 -1.152,0 -1.952,0.832 -0.8,0.832 -1.312,2.08 -0.512,1.248 -0.768,2.56 -0.224,1.312 -0.224,2.272001 0,1.248 0.576,2.016 0.608,0.736 1.6,0.736 z m 18.62398,3.808 q -3.072,0 -4.992,-1.664 -1.92,-1.696 -1.92,-5.088 0,-2.208001 0.608,-4.224001 0.64,-2.048 1.856,-3.648 1.248,-1.6 3.072,-2.528 1.824,-0.96 4.224,-0.96 2.944,0 4.384,1.344 1.472,1.344 1.472,3.424 0,2.752 -2.496,4.416 -2.464,1.664001 -7.552,1.664001 h -0.8 q -0.032,0.192 -0.032,0.352 0,0.128 0,0.288 0,1.408 0.8,2.24 0.832,0.832 2.304,0.832 1.376,0 2.496,-0.32 1.12,-0.32 2.656,-1.024 v 3.552 q -1.376,0.672 -2.784,1.024 -1.408,0.32 -3.296,0.32 z m -0.928,-10.432001 q 2.72,0 3.904,-0.832 1.216,-0.864 1.216,-1.984 0,-1.472 -1.632,-1.472 -0.864,0 -1.728,0.544 -0.864,0.544 -1.536,1.504 -0.64,0.96 -0.928,2.24 z m 18.52797,10.432001 q -1.952,0 -3.488,-0.8 -1.504,-0.832 -2.368,-2.336 -0.832,-1.504 -0.832,-3.584 0,-2.304001 0.576,-4.352001 0.576,-2.08 1.728,-3.648 1.152,-1.6 2.88,-2.496 1.76,-0.896 4.096,-0.896 3.04,0 4.832,1.824 1.792,1.824 1.792,5.088 0,2.208 -0.544,4.224001 -0.544,2.016 -1.696,3.584 -1.12,1.568 -2.88,2.496 -1.728,0.896 -4.096,0.896 z m 0.384,-3.84 q 1.312,0 2.208,-1.056 0.928,-1.056 1.408,-2.720001 0.48,-1.696 0.48,-3.584 0,-1.312 -0.512,-2.176 -0.48,-0.896 -1.728,-0.896 -1.056,0 -1.856,0.736 -0.8,0.704 -1.312,1.856 -0.512,1.152 -0.768,2.464 -0.256,1.312 -0.256,2.496001 0,2.88 2.336,2.88 z m 9.18398,11.2 5.344,-25.152001 h 3.584 l -0.256,2.656 h 0.128 q 0.832,-1.12 2.048,-2.048 1.216,-0.928 2.912,-0.928 1.28,0 2.4,0.64 1.12,0.608 1.824,2.016 0.704,1.376 0.704,3.712 0,2.112 -0.576,4.224 -0.576,2.080001 -1.632,3.776001 -1.056,1.696 -2.56,2.72 -1.472,1.024 -3.328,1.024 -1.6,0 -2.464,-0.736 -0.864,-0.736 -1.504,-1.824 h -0.128 q -0.096,1.28 -0.256,2.336 -0.16,1.056 -0.416,2.272 l -1.12,5.312 z m 9.792,-11.168 q 0.864,0 1.6,-0.672 0.768,-0.704 1.312,-1.824 0.576,-1.120001 0.896,-2.496001 0.32,-1.376 0.32,-2.752 0,-2.752 -2.048,-2.752 -1.152,0 -1.952,0.832 -0.8,0.832 -1.312,2.08 -0.512,1.248 -0.768,2.56 -0.224,1.312 -0.224,2.272001 0,1.248 0.576,2.016 0.608,0.736 1.6,0.736 z m 10.87997,3.488 5.152,-24.320001 h 4.704 l -5.152,24.320001 z m 17.24803,0.32 q -3.072,0 -4.992,-1.664 -1.92,-1.696 -1.92,-5.088 0,-2.208001 0.608,-4.224001 0.64,-2.048 1.856,-3.648 1.248,-1.6 3.072,-2.528 1.824,-0.96 4.224,-0.96 2.944,0 4.384,1.344 1.472,1.344 1.472,3.424 0,2.752 -2.496,4.416 -2.464,1.664001 -7.552,1.664001 h -0.8 q -0.032,0.192 -0.032,0.352 0,0.128 0,0.288 0,1.408 0.8,2.24 0.832,0.832 2.304,0.832 1.376,0 2.496,-0.32 1.12,-0.32 2.656,-1.024 v 3.552 q -1.376,0.672 -2.784,1.024 -1.408,0.32 -3.296,0.32 z m -0.928,-10.432001 q 2.72,0 3.904,-0.832 1.216,-0.864 1.216,-1.984 0,-1.472 -1.632,-1.472 -0.864,0 -1.728,0.544 -0.864,0.544 -1.536,1.504 -0.64,0.96 -0.928,2.24 z m 26.65598,10.432001 q -1.792,0 -3.296,-0.64 -1.472,-0.672 -2.336,-2.08 -0.864,-1.408 -0.864,-3.712 0,-2.368001 0.608,-4.448001 0.608,-2.112 1.792,-3.744 1.184,-1.632 2.912,-2.56 1.728,-0.928 3.936,-0.928 1.568,0 2.784,0.288 1.248,0.288 2.336,0.832 l -1.44,3.584 q -0.832,-0.352 -1.664,-0.608 -0.8,-0.288 -1.824,-0.288 -1.472,0 -2.528,1.12 -1.056,1.088 -1.6,2.816 -0.544,1.696 -0.544,3.552001 0,1.472 0.704,2.24 0.704,0.768 1.984,0.768 1.184,0 2.176,-0.352 1.024,-0.384 2.112,-0.928 v 3.84 q -1.088,0.576 -2.368,0.928 -1.248,0.32 -2.88,0.32 z m 13.888,0 q -1.248,0 -2.4,-0.608 -1.12,-0.64 -1.824,-2.016 -0.704,-1.408 -0.704,-3.712 0,-2.144001 0.576,-4.224001 0.576,-2.08 1.632,-3.776 1.056,-1.728 2.528,-2.752 1.504,-1.024 3.36,-1.024 1.664,0 2.688,0.704 1.056,0.704 1.632,1.856 h 0.128 l 0.896,-2.24 h 3.616 l -3.712,17.472001 h -3.52 l 0.224,-2.272 h -0.128 q -0.928,1.152 -2.144,1.888 -1.184,0.704 -2.848,0.704 z m 1.856,-3.808 q 0.96,0 1.792,-0.768 0.832,-0.768 1.408,-1.984 0.608,-1.216001 0.864,-2.560001 0.224,-1.152 0.224,-2.624 0,-1.12 -0.576,-1.824 -0.576,-0.736 -1.6,-0.736 -0.864,0 -1.632,0.704 -0.736,0.672 -1.312,1.792 -0.544,1.12 -0.864,2.496 -0.32,1.376 -0.32,2.752001 0,2.752 2.016,2.752 z m 11.39199,3.488 3.712,-17.472001 h 3.584 l -0.32,3.232 h 0.128 q 1.024,-1.568 2.336,-2.56 1.344,-0.992 3.168,-0.992 2.272,0 3.392,1.376 1.12,1.344 1.12,3.648 0,1.152 -0.352,2.816 l -2.08,9.952001 h -4.704 l 2.144,-10.208001 q 0.256,-1.12 0.256,-1.856 0,-1.92 -1.696,-1.92 -1.056,0 -1.92,0.928 -0.864,0.896 -1.504,2.432 -0.608,1.536 -1.024,3.392 l -1.536,7.232001 z m 33.47201,0.32 q -2.048,0 -3.296,-0.864 -1.248,-0.896 -1.248,-3.168 0,-0.8 0.192,-1.76 l 1.792,-8.416001 h -2.368 l 0.448,-2.304 3.072,-1.312 2.048,-3.68 h 3.04 l -0.768,3.712 h 4.416 l -0.768,3.584 h -4.416 l -1.792,8.416001 q -0.096,0.48 -0.096,0.832 0,0.608 0.384,0.896 0.384,0.256 0.992,0.256 0.64,0 1.216,-0.128 0.608,-0.16 1.312,-0.416 v 3.52 q -0.736,0.352 -1.792,0.576 -1.056,0.256 -2.368,0.256 z m 13.056,0 q -1.248,0 -2.4,-0.608 -1.12,-0.64 -1.824,-2.016 -0.704,-1.408 -0.704,-3.712 0,-2.144001 0.576,-4.224001 0.576,-2.08 1.632,-3.776 1.056,-1.728 2.528,-2.752 1.504,-1.024 3.36,-1.024 1.664,0 2.688,0.704 1.056,0.704 1.632,1.856 h 0.128 l 0.896,-2.24 h 3.616 l -3.712,17.472001 h -3.52 l 0.224,-2.272 h -0.128 q -0.928,1.152 -2.144,1.888 -1.184,0.704 -2.848,0.704 z m 1.856,-3.808 q 0.96,0 1.792,-0.768 0.832,-0.768 1.408,-1.984 0.608,-1.216001 0.864,-2.560001 0.224,-1.152 0.224,-2.624 0,-1.12 -0.576,-1.824 -0.576,-0.736 -1.6,-0.736 -0.864,0 -1.632,0.704 -0.736,0.672 -1.312,1.792 -0.544,1.12 -0.864,2.496 -0.32,1.376 -0.32,2.752001 0,2.752 2.016,2.752 z m 11.39199,3.488 5.152,-24.320001 h 4.704 l -5.152,24.320001 z m 9.50403,0 5.152,-24.320001 h 4.704 l -2.304,10.848 q -0.16,0.8 -0.48,1.856 -0.32,1.024 -0.48,1.568 h 0.128 l 7.072,-7.424 h 5.376 l -7.776,7.872 4.448,9.600001 h -5.248 l -2.848,-6.56 -1.888,1.12 -1.152,5.44 z m 25.21604,7.68 q -1.632,0 -2.72,-0.384 v -3.776 q 0.96,0.32 1.792,0.32 0.96,0 1.664,-0.64 0.736,-0.64 1.024,-2.016 l 3.2,-15.072001 h -2.56 l 0.48,-2.272 2.848,-1.312 0.288,-1.312 q 0.704,-3.168 2.272,-4.416 1.6,-1.28 4.16,-1.28 1.088,0 1.984,0.224 0.928,0.192 1.696,0.544 l -1.248,3.488 q -0.448,-0.192 -0.96,-0.32 -0.48,-0.16 -1.12,-0.16 -0.896,0 -1.44,0.64 -0.544,0.608 -0.736,1.632 l -0.192,0.96 h 3.424 l -0.768,3.584 h -3.424 l -3.36,15.776001 q -0.32,1.6 -1.056,2.912 -0.736,1.312 -2.016,2.08 -1.248,0.8 -3.232,0.8 z m 20.73597,-7.36 q -1.952,0 -3.488,-0.8 -1.504,-0.832 -2.368,-2.336 -0.832,-1.504 -0.832,-3.584 0,-2.304001 0.576,-4.352001 0.576,-2.08 1.728,-3.648 1.152,-1.6 2.88,-2.496 1.76,-0.896 4.096,-0.896 3.04,0 4.832,1.824 1.792,1.824 1.792,5.088 0,2.208 -0.544,4.224001 -0.544,2.016 -1.696,3.584 -1.12,1.568 -2.88,2.496 -1.728,0.896 -4.096,0.896 z m 0.384,-3.84 q 1.312,0 2.208,-1.056 0.928,-1.056 1.408,-2.720001 0.48,-1.696 0.48,-3.584 0,-1.312 -0.512,-2.176 -0.48,-0.896 -1.728,-0.896 -1.056,0 -1.856,0.736 -0.8,0.704 -1.312,1.856 -0.512,1.152 -0.768,2.464 -0.256,1.312 -0.256,2.496001 0,2.88 2.336,2.88 z m 10.81597,3.52 3.712,-17.472001 h 3.584 l -0.32,3.232 h 0.16 q 1.056,-1.664 2.4,-2.592 1.344,-0.96 3.04,-0.96 0.384,0 0.8,0.064 0.448,0.032 0.704,0.096 l -1.024,4.544 q -0.256,-0.096 -0.672,-0.16 -0.416,-0.096 -0.896,-0.096 -1.76,0 -3.168,1.408 -1.376,1.376 -1.952,4.128 l -1.664,7.808001 z m 29.31199,0.32 q -1.952,0 -3.488,-0.8 -1.504,-0.832 -2.368,-2.336 -0.832,-1.504 -0.832,-3.584 0,-2.304001 0.576,-4.352001 0.576,-2.08 1.728,-3.648 1.152,-1.6 2.88,-2.496 1.76,-0.896 4.096,-0.896 3.04,0 4.832,1.824 1.792,1.824 1.792,5.088 0,2.208 -0.544,4.224001 -0.544,2.016 -1.696,3.584 -1.12,1.568 -2.88,2.496 -1.728,0.896 -4.096,0.896 z m 0.384,-3.84 q 1.312,0 2.208,-1.056 0.928,-1.056 1.408,-2.720001 0.48,-1.696 0.48,-3.584 0,-1.312 -0.512,-2.176 -0.48,-0.896 -1.728,-0.896 -1.056,0 -1.856,0.736 -0.8,0.704 -1.312,1.856 -0.512,1.152 -0.768,2.464 -0.256,1.312 -0.256,2.496001 0,2.88 2.336,2.88 z m 10.81597,3.52 3.712,-17.472001 h 3.584 l -0.32,3.232 h 0.128 q 1.024,-1.568 2.336,-2.56 1.344,-0.992 3.168,-0.992 2.272,0 3.392,1.376 1.12,1.344 1.12,3.648 0,1.152 -0.352,2.816 l -2.08,9.952001 h -4.704 l 2.144,-10.208001 q 0.256,-1.12 0.256,-1.856 0,-1.92 -1.696,-1.92 -1.056,0 -1.92,0.928 -0.864,0.896 -1.504,2.432 -0.608,1.536 -1.024,3.392 l -1.536,7.232001 z m 27.07201,0.32 q -3.072,0 -4.992,-1.664 -1.92,-1.696 -1.92,-5.088 0,-2.208001 0.608,-4.224001 0.64,-2.048 1.856,-3.648 1.248,-1.6 3.072,-2.528 1.824,-0.96 4.224,-0.96 2.944,0 4.384,1.344 1.472,1.344 1.472,3.424 0,2.752 -2.496,4.416 -2.464,1.664001 -7.552,1.664001 h -0.8 q -0.032,0.192 -0.032,0.352 0,0.128 0,0.288 0,1.408 0.8,2.24 0.832,0.832 2.304,0.832 1.376,0 2.496,-0.32 1.12,-0.32 2.656,-1.024 v 3.552 q -1.376,0.672 -2.784,1.024 -1.408,0.32 -3.296,0.32 z m -0.928,-10.432001 q 2.72,0 3.904,-0.832 1.216,-0.864 1.216,-1.984 0,-1.472 -1.632,-1.472 -0.864,0 -1.728,0.544 -0.864,0.544 -1.536,1.504 -0.64,0.96 -0.928,2.24 z m 21.50398,10.112001 -0.8,-17.472001 h 4.384 l 0.064,7.744 q 0,1.28 -0.032,2.56 0,1.248001 -0.128,2.720001 h 0.128 q 0.224,-0.8 0.576,-1.76 0.352,-0.992001 0.64,-1.792001 0.32,-0.8 0.448,-1.088 l 3.616,-8.384 h 5.12 v 8.384 q 0,1.088 -0.032,2.208001 0,1.12 -0.128,2.432 h 0.16 q 0.224,-0.736 0.544,-1.728 0.352,-0.992001 0.704,-1.952001 0.352,-0.992 0.608,-1.6 l 3.424,-7.744 h 4.8 l -8.288,17.472001 h -5.152 l -0.096,-8.128001 q 0,-0.672 0,-1.6 0.032,-0.96 0.064,-1.952 0.064,-0.992 0.096,-1.76 h -0.192 q -0.256,0.768 -0.608,1.728 -0.32,0.928 -0.64,1.792 -0.32,0.864 -0.576,1.472 l -3.648,8.448001 z m 23.04,0 5.152,-24.320001 h 4.704 l -0.896,4.224 q -0.128,0.704 -0.384,1.632 -0.256,0.928 -0.512,1.824 -0.256,0.864 -0.48,1.504 h 0.128 q 0.96,-1.216 2.144,-1.92 1.184,-0.736 2.752,-0.736 2.272,0 3.392,1.376 1.12,1.344 1.12,3.648 0,1.152 -0.352,2.816 l -2.08,9.952001 h -4.704 l 2.144,-10.208001 q 0.256,-1.12 0.256,-1.856 0,-1.92 -1.696,-1.92 -1.056,0 -1.92,0.928 -0.864,0.896 -1.504,2.432 -0.608,1.536 -1.024,3.392 l -1.536,7.232001 z m 26.848,0.32 q -1.952,0 -3.488,-0.8 -1.504,-0.832 -2.368,-2.336 -0.832,-1.504 -0.832,-3.584 0,-2.304001 0.576,-4.352001 0.576,-2.08 1.728,-3.648 1.152,-1.6 2.88,-2.496 1.76,-0.896 4.096,-0.896 3.04,0 4.832,1.824 1.792,1.824 1.792,5.088 0,2.208 -0.544,4.224001 -0.544,2.016 -1.696,3.584 -1.12,1.568 -2.88,2.496 -1.728,0.896 -4.096,0.896 z m 0.384,-3.84 q 1.312,0 2.208,-1.056 0.928,-1.056 1.408,-2.720001 0.48,-1.696 0.48,-3.584 0,-1.312 -0.512,-2.176 -0.48,-0.896 -1.728,-0.896 -1.056,0 -1.856,0.736 -0.8,0.704 -1.312,1.856 -0.512,1.152 -0.768,2.464 -0.256,1.312 -0.256,2.496001 0,2.88 2.336,2.88 z m 26.46398,3.84 q -1.792,0 -3.296,-0.64 -1.472,-0.672 -2.336,-2.08 -0.864,-1.408 -0.864,-3.712 0,-2.368001 0.608,-4.448001 0.608,-2.112 1.792,-3.744 1.184,-1.632 2.912,-2.56 1.728,-0.928 3.936,-0.928 1.568,0 2.784,0.288 1.248,0.288 2.336,0.832 l -1.44,3.584 q -0.832,-0.352 -1.664,-0.608 -0.8,-0.288 -1.824,-0.288 -1.472,0 -2.528,1.12 -1.056,1.088 -1.6,2.816 -0.544,1.696 -0.544,3.552001 0,1.472 0.704,2.24 0.704,0.768 1.984,0.768 1.184,0 2.176,-0.352 1.024,-0.384 2.112,-0.928 v 3.84 q -1.088,0.576 -2.368,0.928 -1.248,0.32 -2.88,0.32 z m 13.888,0 q -1.248,0 -2.4,-0.608 -1.12,-0.64 -1.824,-2.016 -0.704,-1.408 -0.704,-3.712 0,-2.144001 0.576,-4.224001 0.576,-2.08 1.632,-3.776 1.056,-1.728 2.528,-2.752 1.504,-1.024 3.36,-1.024 1.664,0 2.688,0.704 1.056,0.704 1.632,1.856 h 0.128 l 0.896,-2.24 h 3.616 l -3.712,17.472001 h -3.52 l 0.224,-2.272 h -0.128 q -0.928,1.152 -2.144,1.888 -1.184,0.704 -2.848,0.704 z m 1.856,-3.808 q 0.96,0 1.792,-0.768 0.832,-0.768 1.408,-1.984 0.608,-1.216001 0.864,-2.560001 0.224,-1.152 0.224,-2.624 0,-1.12 -0.576,-1.824 -0.576,-0.736 -1.6,-0.736 -0.864,0 -1.632,0.704 -0.736,0.672 -1.312,1.792 -0.544,1.12 -0.864,2.496 -0.32,1.376 -0.32,2.752001 0,2.752 2.016,2.752 z m 11.39199,3.488 3.712,-17.472001 h 3.584 l -0.32,3.232 h 0.128 q 1.024,-1.568 2.336,-2.56 1.344,-0.992 3.168,-0.992 2.272,0 3.392,1.376 1.12,1.344 1.12,3.648 0,1.152 -0.352,2.816 l -2.08,9.952001 h -4.704 l 2.144,-10.208001 q 0.256,-1.12 0.256,-1.856 0,-1.92 -1.696,-1.92 -1.056,0 -1.92,0.928 -0.864,0.896 -1.504,2.432 -0.608,1.536 -1.024,3.392 l -1.536,7.232001 z m 33.47201,0.32 q -2.048,0 -3.296,-0.864 -1.248,-0.896 -1.248,-3.168 0,-0.8 0.192,-1.76 l 1.792,-8.416001 h -2.368 l 0.448,-2.304 3.072,-1.312 2.048,-3.68 h 3.04 l -0.768,3.712 h 4.416 l -0.768,3.584 h -4.416 l -1.792,8.416001 q -0.096,0.48 -0.096,0.832 0,0.608 0.384,0.896 0.384,0.256 0.992,0.256 0.64,0 1.216,-0.128 0.608,-0.16 1.312,-0.416 v 3.52 q -0.736,0.352 -1.792,0.576 -1.056,0.256 -2.368,0.256 z m 7.296,-0.32 5.152,-24.320001 h 4.704 l -0.896,4.224 q -0.128,0.704 -0.384,1.632 -0.256,0.928 -0.512,1.824 -0.256,0.864 -0.48,1.504 h 0.128 q 0.96,-1.216 2.144,-1.92 1.184,-0.736 2.752,-0.736 2.272,0 3.392,1.376 1.12,1.344 1.12,3.648 0,1.152 -0.352,2.816 l -2.08,9.952001 h -4.704 l 2.144,-10.208001 q 0.256,-1.12 0.256,-1.856 0,-1.92 -1.696,-1.92 -1.056,0 -1.92,0.928 -0.864,0.896 -1.504,2.432 -0.608,1.536 -1.024,3.392 l -1.536,7.232001 z m 26.144,-19.648001 q -0.992,0 -1.696,-0.416 -0.672,-0.448 -0.672,-1.504 0,-1.344 0.736,-2.048 0.768,-0.704 2.112,-0.704 0.928,0 1.632,0.416 0.704,0.416 0.704,1.472 0,1.248 -0.704,2.016 -0.672,0.768 -2.112,0.768 z m -6.816,19.648001 3.712,-17.472001 h 4.704 l -3.712,17.472001 z m 9.50403,0 3.712,-17.472001 h 3.584 l -0.32,3.232 h 0.128 q 1.024,-1.568 2.336,-2.56 1.344,-0.992 3.168,-0.992 2.272,0 3.392,1.376 1.12,1.344 1.12,3.648 0,1.152 -0.352,2.816 l -2.08,9.952001 h -4.704 l 2.144,-10.208001 q 0.256,-1.12 0.256,-1.856 0,-1.92 -1.696,-1.92 -1.056,0 -1.92,0.928 -0.864,0.896 -1.504,2.432 -0.608,1.536 -1.024,3.392 l -1.536,7.232001 z m 19.328,0 5.152,-24.320001 h 4.704 l -2.304,10.848 q -0.16,0.8 -0.48,1.856 -0.32,1.024 -0.48,1.568 h 0.128 l 7.072,-7.424 h 5.376 l -7.776,7.872 4.448,9.600001 h -5.248 l -2.848,-6.56 -1.888,1.12 -1.152,5.44 z m 16.00003,4.128 q 0.832,-1.888 1.632,-4.032 0.8,-2.144 1.408,-3.808 h 4.448 l 0.128,0.352 q -0.768,1.696 -1.888,3.712 -1.088,2.016 -2.208,3.776 z" />
      <path d="m 278.25381,147.33259 q -1.664,0 -2.72,-0.704 -1.024,-0.704 -1.6,-1.856 h -0.128 l -0.896,2.24 h -3.616 l 5.152,-24.32 h 4.704 l -0.96,4.512 q -0.128,0.64 -0.352,1.504 -0.224,0.832 -0.48,1.696 -0.256,0.832 -0.48,1.472 h 0.128 q 0.832,-1.056 1.824,-1.856 0.992,-0.8 2.592,-0.8 1.28,0 2.4,0.64 1.12,0.608 1.824,2.016 0.704,1.376 0.704,3.68 0,2.144 -0.576,4.224 -0.576,2.08 -1.632,3.808 -1.056,1.696 -2.56,2.72 -1.472,1.024 -3.328,1.024 z m -0.8,-3.808 q 0.864,0 1.6,-0.672 0.768,-0.704 1.312,-1.824 0.576,-1.12 0.896,-2.496 0.32,-1.376 0.32,-2.752 0,-2.752 -2.048,-2.752 -1.152,0 -1.952,0.832 -0.8,0.832 -1.312,2.112 -0.512,1.248 -0.768,2.56 -0.224,1.312 -0.224,2.24 0,1.248 0.576,2.016 0.608,0.736 1.6,0.736 z m 16.47998,3.808 q -2.24,0 -3.36,-1.344 -1.088,-1.376 -1.088,-3.68 0,-0.576 0.096,-1.472 0.096,-0.928 0.288,-1.856 l 1.984,-9.44 h 4.704 l -2.144,10.208 q -0.256,1.12 -0.256,1.856 0,1.92 1.696,1.92 1.088,0 1.92,-0.896 0.864,-0.928 1.504,-2.464 0.64,-1.536 1.024,-3.392 l 1.536,-7.232 h 4.704 l -3.712,17.472 h -3.584 l 0.32,-3.232 h -0.16 q -0.992,1.568 -2.336,2.56 -1.312,0.992 -3.136,0.992 z m 19.552,0 q -2.048,0 -3.296,-0.864 -1.248,-0.896 -1.248,-3.168 0,-0.8 0.192,-1.76 l 1.792,-8.416 h -2.368 l 0.448,-2.304 3.072,-1.312 2.048,-3.68 h 3.04 l -0.768,3.712 h 4.416 l -0.768,3.584 h -4.416 l -1.792,8.416 q -0.096,0.48 -0.096,0.832 0,0.608 0.384,0.896 0.384,0.256 0.992,0.256 0.64,0 1.216,-0.128 0.608,-0.16 1.312,-0.416 v 3.52 q -0.736,0.352 -1.792,0.576 -1.056,0.256 -2.368,0.256 z m 21.44,0 q -2.048,0 -3.296,-0.864 -1.248,-0.896 -1.248,-3.168 0,-0.8 0.192,-1.76 l 1.792,-8.416 h -2.368 l 0.448,-2.304 3.072,-1.312 2.048,-3.68 h 3.04 l -0.768,3.712 h 4.416 l -0.768,3.584 h -4.416 l -1.792,8.416 q -0.096,0.48 -0.096,0.832 0,0.608 0.384,0.896 0.384,0.256 0.992,0.256 0.64,0 1.216,-0.128 0.608,-0.16 1.312,-0.416 v 3.52 q -0.736,0.352 -1.792,0.576 -1.056,0.256 -2.368,0.256 z m 7.296,-0.32 5.152,-24.32 h 4.704 l -0.896,4.224 q -0.128,0.704 -0.384,1.632 -0.256,0.928 -0.512,1.824 -0.256,0.864 -0.48,1.504 h 0.128 q 0.96,-1.216 2.144,-1.92 1.184,-0.736 2.752,-0.736 2.272,0 3.392,1.376 1.12,1.344 1.12,3.648 0,1.152 -0.352,2.816 l -2.08,9.952 h -4.704 l 2.144,-10.208 q 0.256,-1.12 0.256,-1.856 0,-1.92 -1.696,-1.92 -1.056,0 -1.92,0.928 -0.864,0.896 -1.504,2.432 -0.608,1.536 -1.024,3.392 l -1.536,7.232 z m 26.848,0.32 q -1.952,0 -3.488,-0.8 -1.504,-0.832 -2.368,-2.336 -0.832,-1.504 -0.832,-3.584 0,-2.304 0.576,-4.352 0.576,-2.08 1.728,-3.648 1.152,-1.6 2.88,-2.496 1.76,-0.896 4.096,-0.896 3.04,0 4.832,1.824 1.792,1.824 1.792,5.088 0,2.208 -0.544,4.224 -0.544,2.016 -1.696,3.584 -1.12,1.568 -2.88,2.496 -1.728,0.896 -4.096,0.896 z m 0.384,-3.84 q 1.312,0 2.208,-1.056 0.928,-1.056 1.408,-2.72 0.48,-1.696 0.48,-3.584 0,-1.312 -0.512,-2.176 -0.48,-0.896 -1.728,-0.896 -1.056,0 -1.856,0.736 -0.8,0.704 -1.312,1.856 -0.512,1.152 -0.768,2.464 -0.256,1.312 -0.256,2.496 0,2.88 2.336,2.88 z m 16.41597,3.84 q -2.24,0 -3.36,-1.344 -1.088,-1.376 -1.088,-3.68 0,-0.576 0.096,-1.472 0.096,-0.928 0.288,-1.856 l 1.984,-9.44 h 4.704 l -2.144,10.208 q -0.256,1.12 -0.256,1.856 0,1.92 1.696,1.92 1.088,0 1.92,-0.896 0.864,-0.928 1.504,-2.464 0.64,-1.536 1.024,-3.392 l 1.536,-7.232 h 4.704 l -3.712,17.472 h -3.584 l 0.32,-3.232 h -0.16 q -0.992,1.568 -2.336,2.56 -1.312,0.992 -3.136,0.992 z m 18.752,0 q -1.664,0 -2.912,-0.256 -1.248,-0.224 -2.336,-0.768 v -3.872 q 1.184,0.672 2.432,1.056 1.248,0.352 2.56,0.352 1.12,0 1.984,-0.448 0.864,-0.48 0.864,-1.44 0,-0.64 -0.512,-1.152 -0.512,-0.512 -2.112,-1.408 -1.632,-0.928 -2.528,-1.92 -0.864,-1.024 -0.864,-2.688 0,-2.72 1.76,-4.128 1.792,-1.44 4.896,-1.44 1.504,0 2.912,0.352 1.408,0.32 2.752,1.12 l -1.536,3.36 q -0.928,-0.544 -1.984,-0.928 -1.024,-0.384 -2.048,-0.384 -0.768,0 -1.376,0.384 -0.608,0.352 -0.608,1.088 0,0.608 0.512,1.088 0.512,0.448 1.856,1.152 1.6,0.8 2.624,1.92 1.024,1.088 1.024,2.88 0,3.008 -2.016,4.544 -1.984,1.536 -5.344,1.536 z m 15.87199,0 q -1.248,0 -2.4,-0.608 -1.12,-0.64 -1.824,-2.016 -0.704,-1.408 -0.704,-3.712 0,-2.144 0.576,-4.224 0.576,-2.08 1.632,-3.776 1.056,-1.728 2.528,-2.752 1.504,-1.024 3.36,-1.024 1.664,0 2.688,0.704 1.056,0.704 1.632,1.856 h 0.128 l 0.896,-2.24 h 3.616 l -3.712,17.472 h -3.52 l 0.224,-2.272 h -0.128 q -0.928,1.152 -2.144,1.888 -1.184,0.704 -2.848,0.704 z m 1.856,-3.808 q 0.96,0 1.792,-0.768 0.832,-0.768 1.408,-1.984 0.608,-1.216 0.864,-2.56 0.224,-1.152 0.224,-2.624 0,-1.12 -0.576,-1.824 -0.576,-0.736 -1.6,-0.736 -0.864,0 -1.632,0.704 -0.736,0.672 -1.312,1.792 -0.544,1.12 -0.864,2.496 -0.32,1.376 -0.32,2.752 0,2.752 2.016,2.752 z m 11.39199,3.488 3.712,-17.472 h 3.584 l -0.32,3.232 h 0.128 q 1.024,-1.568 2.336,-2.56 1.344,-0.992 3.168,-0.992 2.272,0 3.392,1.376 1.12,1.344 1.12,3.648 0,1.152 -0.352,2.816 l -2.08,9.952 h -4.704 l 2.144,-10.208 q 0.256,-1.12 0.256,-1.856 0,-1.92 -1.696,-1.92 -1.056,0 -1.92,0.928 -0.864,0.896 -1.504,2.432 -0.608,1.536 -1.024,3.392 l -1.536,7.232 z m 25.08801,0.32 q -1.248,0 -2.4,-0.608 -1.12,-0.64 -1.824,-2.016 -0.704,-1.408 -0.704,-3.744 0,-2.112 0.576,-4.192 0.576,-2.112 1.632,-3.808 1.056,-1.696 2.528,-2.72 1.504,-1.024 3.36,-1.024 1.568,0 2.464,0.736 0.896,0.736 1.504,1.824 h 0.128 q 0,-0.096 0.032,-0.672 0.064,-0.608 0.16,-1.376 0.096,-0.8 0.224,-1.44 l 1.184,-5.6 h 4.704 l -5.152,24.32 h -3.584 l 0.288,-2.272 h -0.128 q -0.928,1.152 -2.112,1.888 -1.184,0.704 -2.88,0.704 z m 1.984,-3.808 q 1.12,0 1.888,-0.832 0.8,-0.864 1.28,-2.112 0.512,-1.28 0.736,-2.56 0.256,-1.312 0.256,-2.24 0,-1.248 -0.576,-1.984 -0.576,-0.768 -1.6,-0.768 -0.864,0 -1.632,0.704 -0.736,0.672 -1.312,1.792 -0.544,1.12 -0.864,2.496 -0.32,1.376 -0.32,2.752 0,2.752 2.144,2.752 z m 16.28799,3.808 q -1.664,0 -2.912,-0.256 -1.248,-0.224 -2.336,-0.768 v -3.872 q 1.184,0.672 2.432,1.056 1.248,0.352 2.56,0.352 1.12,0 1.984,-0.448 0.864,-0.48 0.864,-1.44 0,-0.64 -0.512,-1.152 -0.512,-0.512 -2.112,-1.408 -1.632,-0.928 -2.528,-1.92 -0.864,-1.024 -0.864,-2.688 0,-2.72 1.76,-4.128 1.792,-1.44 4.896,-1.44 1.504,0 2.912,0.352 1.408,0.32 2.752,1.12 l -1.536,3.36 q -0.928,-0.544 -1.984,-0.928 -1.024,-0.384 -2.048,-0.384 -0.768,0 -1.376,0.384 -0.608,0.352 -0.608,1.088 0,0.608 0.512,1.088 0.512,0.448 1.856,1.152 1.6,0.8 2.624,1.92 1.024,1.088 1.024,2.88 0,3.008 -2.016,4.544 -1.984,1.536 -5.344,1.536 z m 25.76,0 q -1.792,0 -3.296,-0.64 -1.472,-0.672 -2.336,-2.08 -0.864,-1.408 -0.864,-3.712 0,-2.368 0.608,-4.448 0.608,-2.112 1.792,-3.744 1.184,-1.632 2.912,-2.56 1.728,-0.928 3.936,-0.928 1.568,0 2.784,0.288 1.248,0.288 2.336,0.832 l -1.44,3.584 q -0.832,-0.352 -1.664,-0.608 -0.8,-0.288 -1.824,-0.288 -1.472,0 -2.528,1.12 -1.056,1.088 -1.6,2.816 -0.544,1.696 -0.544,3.552 0,1.472 0.704,2.24 0.704,0.768 1.984,0.768 1.184,0 2.176,-0.352 1.024,-0.384 2.112,-0.928 v 3.84 q -1.088,0.576 -2.368,0.928 -1.248,0.32 -2.88,0.32 z m 13.88799,0 q -1.248,0 -2.4,-0.608 -1.12,-0.64 -1.824,-2.016 -0.704,-1.408 -0.704,-3.712 0,-2.144 0.576,-4.224 0.576,-2.08 1.632,-3.776 1.056,-1.728 2.528,-2.752 1.504,-1.024 3.36,-1.024 1.664,0 2.688,0.704 1.056,0.704 1.632,1.856 h 0.128 l 0.896,-2.24 h 3.616 l -3.712,17.472 h -3.52 l 0.224,-2.272 h -0.128 q -0.928,1.152 -2.144,1.888 -1.184,0.704 -2.848,0.704 z m 1.856,-3.808 q 0.96,0 1.792,-0.768 0.832,-0.768 1.408,-1.984 0.608,-1.216 0.864,-2.56 0.224,-1.152 0.224,-2.624 0,-1.12 -0.576,-1.824 -0.576,-0.736 -1.6,-0.736 -0.864,0 -1.632,0.704 -0.736,0.672 -1.312,1.792 -0.544,1.12 -0.864,2.496 -0.32,1.376 -0.32,2.752 0,2.752 2.016,2.752 z m 11.392,3.488 3.712,-17.472 h 3.584 l -0.32,3.232 h 0.128 q 1.024,-1.568 2.336,-2.56 1.344,-0.992 3.168,-0.992 2.272,0 3.392,1.376 1.12,1.344 1.12,3.648 0,1.152 -0.352,2.816 l -2.08,9.952 h -4.704 l 2.144,-10.208 q 0.256,-1.12 0.256,-1.856 0,-1.92 -1.696,-1.92 -1.056,0 -1.92,0.928 -0.864,0.896 -1.504,2.432 -0.608,1.536 -1.024,3.392 l -1.536,7.232 z m 33.47201,0.32 q -2.048,0 -3.296,-0.864 -1.248,-0.896 -1.248,-3.168 0,-0.8 0.192,-1.76 l 1.792,-8.416 h -2.368 l 0.448,-2.304 3.072,-1.312 2.048,-3.68 h 3.04 l -0.768,3.712 h 4.416 l -0.768,3.584 h -4.416 l -1.792,8.416 q -0.096,0.48 -0.096,0.832 0,0.608 0.384,0.896 0.384,0.256 0.992,0.256 0.64,0 1.216,-0.128 0.608,-0.16 1.312,-0.416 v 3.52 q -0.736,0.352 -1.792,0.576 -1.056,0.256 -2.368,0.256 z m 7.29599,-0.32 5.152,-24.32 h 4.704 l -0.896,4.224 q -0.128,0.704 -0.384,1.632 -0.256,0.928 -0.512,1.824 -0.256,0.864 -0.48,1.504 h 0.128 q 0.96,-1.216 2.144,-1.92 1.184,-0.736 2.752,-0.736 2.272,0 3.392,1.376 1.12,1.344 1.12,3.648 0,1.152 -0.352,2.816 l -2.08,9.952 h -4.704 l 2.144,-10.208 q 0.256,-1.12 0.256,-1.856 0,-1.92 -1.696,-1.92 -1.056,0 -1.92,0.928 -0.864,0.896 -1.504,2.432 -0.608,1.536 -1.024,3.392 l -1.536,7.232 z m 26.144,-19.648 q -0.992,0 -1.696,-0.416 -0.672,-0.448 -0.672,-1.504 0,-1.344 0.736,-2.048 0.768,-0.704 2.112,-0.704 0.928,0 1.632,0.416 0.704,0.416 0.704,1.472 0,1.248 -0.704,2.016 -0.672,0.768 -2.112,0.768 z m -6.816,19.648 3.712,-17.472 h 4.704 l -3.712,17.472 z m 9.50403,0 3.712,-17.472 h 3.584 l -0.32,3.232 h 0.128 q 1.024,-1.568 2.336,-2.56 1.344,-0.992 3.168,-0.992 2.272,0 3.392,1.376 1.12,1.344 1.12,3.648 0,1.152 -0.352,2.816 l -2.08,9.952 h -4.704 l 2.144,-10.208 q 0.256,-1.12 0.256,-1.856 0,-1.92 -1.696,-1.92 -1.056,0 -1.92,0.928 -0.864,0.896 -1.504,2.432 -0.608,1.536 -1.024,3.392 l -1.536,7.232 z m 19.32801,0 5.152,-24.32 h 4.704 l -2.304,10.848 q -0.16,0.8 -0.48,1.856 -0.32,1.024 -0.48,1.568 h 0.128 l 7.072,-7.424 h 5.376 l -7.776,7.872 4.448,9.6 h -5.248 l -2.848,-6.56 -1.888,1.12 -1.152,5.44 z m 25.21603,7.68 q -1.632,0 -2.72,-0.384 v -3.776 q 0.96,0.32 1.792,0.32 0.96,0 1.664,-0.64 0.736,-0.64 1.024,-2.016 l 3.2,-15.072 h -2.56 l 0.48,-2.272 2.848,-1.312 0.288,-1.312 q 0.704,-3.168 2.272,-4.416 1.6,-1.28 4.16,-1.28 1.088,0 1.984,0.224 0.928,0.192 1.696,0.544 l -1.248,3.488 q -0.448,-0.192 -0.96,-0.32 -0.48,-0.16 -1.12,-0.16 -0.896,0 -1.44,0.64 -0.544,0.608 -0.736,1.632 l -0.192,0.96 h 3.424 l -0.768,3.584 h -3.424 l -3.36,15.776 q -0.32,1.6 -1.056,2.912 -0.736,1.312 -2.016,2.08 -1.248,0.8 -3.232,0.8 z m 20.73597,-7.36 q -1.952,0 -3.488,-0.8 -1.504,-0.832 -2.368,-2.336 -0.832,-1.504 -0.832,-3.584 0,-2.304 0.576,-4.352 0.576,-2.08 1.728,-3.648 1.152,-1.6 2.88,-2.496 1.76,-0.896 4.096,-0.896 3.04,0 4.832,1.824 1.792,1.824 1.792,5.088 0,2.208 -0.544,4.224 -0.544,2.016 -1.696,3.584 -1.12,1.568 -2.88,2.496 -1.728,0.896 -4.096,0.896 z m 0.384,-3.84 q 1.312,0 2.208,-1.056 0.928,-1.056 1.408,-2.72 0.48,-1.696 0.48,-3.584 0,-1.312 -0.512,-2.176 -0.48,-0.896 -1.728,-0.896 -1.056,0 -1.856,0.736 -0.8,0.704 -1.312,1.856 -0.512,1.152 -0.768,2.464 -0.256,1.312 -0.256,2.496 0,2.88 2.336,2.88 z m 10.81597,3.52 3.712,-17.472 h 3.584 l -0.32,3.232 h 0.16 q 1.056,-1.664 2.4,-2.592 1.344,-0.96 3.04,-0.96 0.384,0 0.8,0.064 0.448,0.032 0.704,0.096 l -1.024,4.544 q -0.256,-0.096 -0.672,-0.16 -0.416,-0.096 -0.896,-0.096 -1.76,0 -3.168,1.408 -1.376,1.376 -1.952,4.128 l -1.664,7.808 z m 29.312,0.32 q -1.952,0 -3.488,-0.8 -1.504,-0.832 -2.368,-2.336 -0.832,-1.504 -0.832,-3.584 0,-2.304 0.576,-4.352 0.576,-2.08 1.728,-3.648 1.152,-1.6 2.88,-2.496 1.76,-0.896 4.096,-0.896 3.04,0 4.832,1.824 1.792,1.824 1.792,5.088 0,2.208 -0.544,4.224 -0.544,2.016 -1.696,3.584 -1.12,1.568 -2.88,2.496 -1.728,0.896 -4.096,0.896 z m 0.384,-3.84 q 1.312,0 2.208,-1.056 0.928,-1.056 1.408,-2.72 0.48,-1.696 0.48,-3.584 0,-1.312 -0.512,-2.176 -0.48,-0.896 -1.728,-0.896 -1.056,0 -1.856,0.736 -0.8,0.704 -1.312,1.856 -0.512,1.152 -0.768,2.464 -0.256,1.312 -0.256,2.496 0,2.88 2.336,2.88 z m 10.81597,3.52 3.712,-17.472 h 3.584 l -0.32,3.232 h 0.128 q 1.024,-1.568 2.336,-2.56 1.344,-0.992 3.168,-0.992 2.272,0 3.392,1.376 1.12,1.344 1.12,3.648 0,1.152 -0.352,2.816 l -2.08,9.952 h -4.704 l 2.144,-10.208 q 0.256,-1.12 0.256,-1.856 0,-1.92 -1.696,-1.92 -1.056,0 -1.92,0.928 -0.864,0.896 -1.504,2.432 -0.608,1.536 -1.024,3.392 l -1.536,7.232 z m 27.072,0.32 q -3.072,0 -4.992,-1.664 -1.92,-1.696 -1.92,-5.088 0,-2.208 0.608,-4.224 0.64,-2.048 1.856,-3.648 1.248,-1.6 3.072,-2.528 1.824,-0.96 4.224,-0.96 2.944,0 4.384,1.344 1.472,1.344 1.472,3.424 0,2.752 -2.496,4.416 -2.464,1.664 -7.552,1.664 h -0.8 q -0.032,0.192 -0.032,0.352 0,0.128 0,0.288 0,1.408 0.8,2.24 0.832,0.832 2.304,0.832 1.376,0 2.496,-0.32 1.12,-0.32 2.656,-1.024 v 3.552 q -1.376,0.672 -2.784,1.024 -1.408,0.32 -3.296,0.32 z m -0.928,-10.432 q 2.72,0 3.904,-0.832 1.216,-0.864 1.216,-1.984 0,-1.472 -1.632,-1.472 -0.864,0 -1.728,0.544 -0.864,0.544 -1.536,1.504 -0.64,0.96 -0.928,2.24 z m 21.50398,10.112 -0.8,-17.472 h 4.384 l 0.064,7.744 q 0,1.28 -0.032,2.56 0,1.248 -0.128,2.72 h 0.128 q 0.224,-0.8 0.576,-1.76 0.352,-0.992 0.64,-1.792 0.32,-0.8 0.448,-1.088 l 3.616,-8.384 h 5.12 v 8.384 q 0,1.088 -0.032,2.208 0,1.12 -0.128,2.432 h 0.16 q 0.224,-0.736 0.544,-1.728 0.352,-0.992 0.704,-1.952 0.352,-0.992 0.608,-1.6 l 3.424,-7.744 h 4.8 l -8.288,17.472 h -5.152 l -0.096,-8.128 q 0,-0.672 0,-1.6 0.032,-0.96 0.064,-1.952 0.064,-0.992 0.096,-1.76 h -0.192 q -0.256,0.768 -0.608,1.728 -0.32,0.928 -0.64,1.792 -0.32,0.864 -0.576,1.472 l -3.648,8.448 z m 23.04,0 5.152,-24.32 h 4.704 l -0.896,4.224 q -0.128,0.704 -0.384,1.632 -0.256,0.928 -0.512,1.824 -0.256,0.864 -0.48,1.504 h 0.128 q 0.96,-1.216 2.144,-1.92 1.184,-0.736 2.752,-0.736 2.272,0 3.392,1.376 1.12,1.344 1.12,3.648 0,1.152 -0.352,2.816 l -2.08,9.952 h -4.704 l 2.144,-10.208 q 0.256,-1.12 0.256,-1.856 0,-1.92 -1.696,-1.92 -1.056,0 -1.92,0.928 -0.864,0.896 -1.504,2.432 -0.608,1.536 -1.024,3.392 l -1.536,7.232 z m 26.84801,0.32 q -1.952,0 -3.488,-0.8 -1.504,-0.832 -2.368,-2.336 -0.832,-1.504 -0.832,-3.584 0,-2.304 0.576,-4.352 0.576,-2.08 1.728,-3.648 1.152,-1.6 2.88,-2.496 1.76,-0.896 4.096,-0.896 3.04,0 4.832,1.824 1.792,1.824 1.792,5.088 0,2.208 -0.544,4.224 -0.544,2.016 -1.696,3.584 -1.12,1.568 -2.88,2.496 -1.728,0.896 -4.096,0.896 z m 0.384,-3.84 q 1.312,0 2.208,-1.056 0.928,-1.056 1.408,-2.72 0.48,-1.696 0.48,-3.584 0,-1.312 -0.512,-2.176 -0.48,-0.896 -1.728,-0.896 -1.056,0 -1.856,0.736 -0.8,0.704 -1.312,1.856 -0.512,1.152 -0.768,2.464 -0.256,1.312 -0.256,2.496 0,2.88 2.336,2.88 z m 26.46398,3.84 q -1.792,0 -3.296,-0.64 -1.472,-0.672 -2.336,-2.08 -0.864,-1.408 -0.864,-3.712 0,-2.368 0.608,-4.448 0.608,-2.112 1.792,-3.744 1.184,-1.632 2.912,-2.56 1.728,-0.928 3.936,-0.928 1.568,0 2.784,0.288 1.248,0.288 2.336,0.832 l -1.44,3.584 q -0.832,-0.352 -1.664,-0.608 -0.8,-0.288 -1.824,-0.288 -1.472,0 -2.528,1.12 -1.056,1.088 -1.6,2.816 -0.544,1.696 -0.544,3.552 0,1.472 0.704,2.24 0.704,0.768 1.984,0.768 1.184,0 2.176,-0.352 1.024,-0.384 2.112,-0.928 v 3.84 q -1.088,0.576 -2.368,0.928 -1.248,0.32 -2.88,0.32 z m 13.88799,0 q -1.248,0 -2.4,-0.608 -1.12,-0.64 -1.824,-2.016 -0.704,-1.408 -0.704,-3.712 0,-2.144 0.576,-4.224 0.576,-2.08 1.632,-3.776 1.056,-1.728 2.528,-2.752 1.504,-1.024 3.36,-1.024 1.664,0 2.688,0.704 1.056,0.704 1.632,1.856 h 0.128 l 0.896,-2.24 h 3.616 l -3.712,17.472 h -3.52 l 0.224,-2.272 h -0.128 q -0.928,1.152 -2.144,1.888 -1.184,0.704 -2.848,0.704 z m 1.856,-3.808 q 0.96,0 1.792,-0.768 0.832,-0.768 1.408,-1.984 0.608,-1.216 0.864,-2.56 0.224,-1.152 0.224,-2.624 0,-1.12 -0.576,-1.824 -0.576,-0.736 -1.6,-0.736 -0.864,0 -1.632,0.704 -0.736,0.672 -1.312,1.792 -0.544,1.12 -0.864,2.496 -0.32,1.376 -0.32,2.752 0,2.752 2.016,2.752 z m 11.39199,3.488 3.712,-17.472 h 3.584 l -0.32,3.232 h 0.128 q 1.024,-1.568 2.336,-2.56 1.344,-0.992 3.168,-0.992 2.272,0 3.392,1.376 1.12,1.344 1.12,3.648 0,1.152 -0.352,2.816 l -2.08,9.952 h -4.704 l 2.144,-10.208 q 0.256,-1.12 0.256,-1.856 0,-1.92 -1.696,-1.92 -1.056,0 -1.92,0.928 -0.864,0.896 -1.504,2.432 -0.608,1.536 -1.024,3.392 l -1.536,7.232 z m 32.67201,0.32 q -1.664,0 -2.912,-0.256 -1.248,-0.224 -2.336,-0.768 v -3.872 q 1.184,0.672 2.432,1.056 1.248,0.352 2.56,0.352 1.12,0 1.984,-0.448 0.864,-0.48 0.864,-1.44 0,-0.64 -0.512,-1.152 -0.512,-0.512 -2.112,-1.408 -1.632,-0.928 -2.528,-1.92 -0.864,-1.024 -0.864,-2.688 0,-2.72 1.76,-4.128 1.792,-1.44 4.896,-1.44 1.504,0 2.912,0.352 1.408,0.32 2.752,1.12 l -1.536,3.36 q -0.928,-0.544 -1.984,-0.928 -1.024,-0.384 -2.048,-0.384 -0.768,0 -1.376,0.384 -0.608,0.352 -0.608,1.088 0,0.608 0.512,1.088 0.512,0.448 1.856,1.152 1.6,0.8 2.624,1.92 1.024,1.088 1.024,2.88 0,3.008 -2.016,4.544 -1.984,1.536 -5.344,1.536 z m 17.85599,0 q -3.072,0 -4.992,-1.664 -1.92,-1.696 -1.92,-5.088 0,-2.208 0.608,-4.224 0.64,-2.048 1.856,-3.648 1.248,-1.6 3.072,-2.528 1.824,-0.96 4.224,-0.96 2.944,0 4.384,1.344 1.472,1.344 1.472,3.424 0,2.752 -2.496,4.416 -2.464,1.664 -7.552,1.664 h -0.8 q -0.032,0.192 -0.032,0.352 0,0.128 0,0.288 0,1.408 0.8,2.24 0.832,0.832 2.304,0.832 1.376,0 2.496,-0.32 1.12,-0.32 2.656,-1.024 v 3.552 q -1.376,0.672 -2.784,1.024 -1.408,0.32 -3.296,0.32 z m -0.928,-10.432 q 2.72,0 3.904,-0.832 1.216,-0.864 1.216,-1.984 0,-1.472 -1.632,-1.472 -0.864,0 -1.728,0.544 -0.864,0.544 -1.536,1.504 -0.64,0.96 -0.928,2.24 z m 18.75198,10.432 q -3.072,0 -4.992,-1.664 -1.92,-1.696 -1.92,-5.088 0,-2.208 0.608,-4.224 0.64,-2.048 1.856,-3.648 1.248,-1.6 3.072,-2.528 1.824,-0.96 4.224,-0.96 2.944,0 4.384,1.344 1.472,1.344 1.472,3.424 0,2.752 -2.496,4.416 -2.464,1.664 -7.552,1.664 h -0.8 q -0.032,0.192 -0.032,0.352 0,0.128 0,0.288 0,1.408 0.8,2.24 0.832,0.832 2.304,0.832 1.376,0 2.496,-0.32 1.12,-0.32 2.656,-1.024 v 3.552 q -1.376,0.672 -2.784,1.024 -1.408,0.32 -3.296,0.32 z m -0.928,-10.432 q 2.72,0 3.904,-0.832 1.216,-0.864 1.216,-1.984 0,-1.472 -1.632,-1.472 -0.864,0 -1.728,0.544 -0.864,0.544 -1.536,1.504 -0.64,0.96 -0.928,2.24 z m 13.24797,10.528 q -1.344,0 -1.888,-0.672 -0.544,-0.704 -0.544,-1.536 0,-1.152 0.704,-2.112 0.736,-0.992 2.496,-0.992 1.056,0 1.696,0.608 0.64,0.576 0.64,1.664 0,1.312 -0.864,2.176 -0.832,0.864 -2.24,0.864 z m 23.264,-15.424 q 0.832,-1.888 1.632,-4.032 0.8,-2.144 1.408,-3.808 h 4.448 l 0.128,0.352 q -0.736,1.664 -1.856,3.68 -1.12,2.016 -2.24,3.808 z m -6.976,0 q 0.832,-1.888 1.632,-4.032 0.8,-2.144 1.408,-3.808 h 4.448 l 0.128,0.352 q -0.736,1.664 -1.856,3.68 -1.12,2.016 -2.24,3.808 z" />
  </g>
</svg>
